<?xml version="1.0" encoding="UTF-8" standalone="no"?>
<!-- Generator: Adobe Illustrator 15.0.0, SVG Export Plug-In . SVG Version: 6.00 Build 0)  -->

<svg
   xmlns:dc="http://purl.org/dc/elements/1.1/"
   xmlns:cc="http://creativecommons.org/ns#"
   xmlns:rdf="http://www.w3.org/1999/02/22-rdf-syntax-ns#"
   xmlns:svg="http://www.w3.org/2000/svg"
   xmlns="http://www.w3.org/2000/svg"
   xmlns:sodipodi="http://sodipodi.sourceforge.net/DTD/sodipodi-0.dtd"
   xmlns:inkscape="http://www.inkscape.org/namespaces/inkscape"
   version="1.1"
   id="Layer_1"
   x="0px"
   y="0px"
   width="700"
   height="700"
   viewBox="0 0 700 700.00001"
   enable-background="new 0 0 76.333 26.688"
   xml:space="preserve"
   sodipodi:docname="aoc-logo.svg"
   inkscape:version="0.92.4 (5da689c313, 2019-01-14)"
   inkscape:export-filename="G:\Users\suitedoalex\sites\aoc-logo-0.png"
   inkscape:export-xdpi="561.73999"
   inkscape:export-ydpi="561.73999"><metadata
   id="metadata15"><rdf:RDF><cc:Work
       rdf:about=""><dc:format>image/svg+xml</dc:format><dc:type
         rdf:resource="http://purl.org/dc/dcmitype/StillImage" /><dc:title></dc:title></cc:Work></rdf:RDF></metadata><defs
   id="defs13" /><sodipodi:namedview
   pagecolor="#ffffff"
   bordercolor="#666666"
   borderopacity="1"
   objecttolerance="10"
   gridtolerance="10"
   guidetolerance="10"
   inkscape:pageopacity="0"
   inkscape:pageshadow="2"
   inkscape:window-width="1600"
   inkscape:window-height="837"
   id="namedview11"
   showgrid="false"
   inkscape:zoom="0.38674896"
   inkscape:cx="618.81141"
   inkscape:cy="408.35942"
   inkscape:window-x="-8"
   inkscape:window-y="-8"
   inkscape:window-maximized="1"
   inkscape:current-layer="Layer_1" />
<path
   d="m 360.3323,434.84291 c 45.21284,0 77.27483,-9.79612 77.27483,-61.24022 v -47.21264 c 0,-51.43685 -32.06199,-61.22572 -77.27483,-61.22572 -45.19836,0 -77.26759,9.79612 -77.26759,61.22572 v 47.21264 c 0,51.4441 32.06923,61.24022 77.26759,61.24022 z m 0,-38.75697 c -23.15709,0 -30.71431,-2.44178 -31.3954,-27.37406 V 331.0635 c 0.68109,-24.71491 8.23831,-27.15669 31.3954,-27.15669 23.17158,0 31.40263,2.44178 31.40263,27.15669 v 37.64838 c 0,24.93228 -8.23105,27.37406 -31.40263,27.37406"
   id="path2"
   inkscape:connector-curvature="0"
   style="stroke-width:7.24564791"
   inkscape:export-filename="G:\Users\suitedoalex\sites\aoc-logo-5.png"
   inkscape:export-xdpi="76.457573"
   inkscape:export-ydpi="76.457573" />
<path
   d="m 601.11966,370.26245 v 4.89806 c 0,18.26628 -0.21012,34.72839 -15.35352,47.43726 -15.14341,12.46251 -33.62705,12.23789 -52.98743,12.23789 -45.43021,0 -78.61527,-2.21716 -78.61527,-63.24001 v -43.2058 c 0,-55.22632 29.6202,-63.23276 78.61527,-63.23276 45.86496,0 67.23962,4.67345 68.13083,54.7771 v 6.44863 h -45.8722 v -6.44863 c -1.55781,-14.92603 -12.02053,-16.03462 -27.17117,-16.03462 -25.38151,0 -27.83054,7.78907 -27.83054,31.61276 v 26.06259 c 0,24.93228 1.10859,34.50378 27.83054,34.50378 18.49089,0 27.3813,-1.32596 27.3813,-20.92543 v -4.89805 h 45.87219 z"
   id="path4"
   inkscape:connector-curvature="0"
   style="stroke-width:7.24564791"
   inkscape:export-filename="G:\Users\suitedoalex\sites\aoc-logo-5.png"
   inkscape:export-xdpi="76.457573"
   inkscape:export-ydpi="76.457573" />
<path
   d="M 144.75254,433.50247 193.46503,327.7305 c 7.905,-17.15044 12.30311,-22.50498 29.67092,-22.50498 v 46.77065 38.74973 42.75657 h 44.539 V 266.48304 h -50.30653 c -41.41612,0 -49.71964,17.70111 -69.77559,61.24746 L 98.88034,433.50247 Z"
   id="path6"
   inkscape:connector-curvature="0"
   style="stroke-width:7.24564791"
   inkscape:export-filename="G:\Users\suitedoalex\sites\aoc-logo-5.png"
   inkscape:export-xdpi="76.457573"
   inkscape:export-ydpi="76.457573" />

<path
   d="m 1078.2085,435.77927 c 45.2128,0 77.2748,-9.79612 77.2748,-61.24022 v -47.21264 c 0,-51.43685 -32.062,-61.22572 -77.2748,-61.22572 -45.1984,0 -77.2676,9.79612 -77.2676,61.22572 v 47.21264 c 0,51.4441 32.0692,61.24022 77.2676,61.24022 z m 0,-38.75697 c -23.1571,0 -30.7143,-2.44178 -31.3954,-27.37406 v -37.64838 c 0.6811,-24.71491 8.2383,-27.15669 31.3954,-27.15669 23.1716,0 31.4026,2.44178 31.4026,27.15669 v 37.64838 c 0,24.93228 -8.231,27.37406 -31.4026,27.37406"
   id="path2-7"
   inkscape:connector-curvature="0"
   style="fill:#005684;fill-opacity:1;stroke-width:7.24564791"
   inkscape:export-filename="G:\Users\suitedoalex\sites\aoc-logo-4.png"
   inkscape:export-xdpi="76.457573"
   inkscape:export-ydpi="76.457573" /><path
   d="m 1318.9958,371.19881 v 4.89806 c 0,18.26628 -0.2101,34.72839 -15.3535,47.43726 -15.1434,12.46251 -33.627,12.23789 -52.9874,12.23789 -45.4302,0 -78.6153,-2.21716 -78.6153,-63.24001 v -43.2058 c 0,-55.22632 29.6202,-63.23276 78.6153,-63.23276 45.8649,0 67.2396,4.67345 68.1308,54.7771 v 6.44863 h -45.8722 v -6.44863 c -1.5578,-14.92603 -12.0205,-16.03462 -27.1712,-16.03462 -25.3815,0 -27.8305,7.78907 -27.8305,31.61276 v 26.06259 c 0,24.93228 1.1086,34.50378 27.8305,34.50378 18.4909,0 27.3813,-1.32596 27.3813,-20.92543 v -4.89805 h 45.8722 z"
   id="path4-8"
   inkscape:connector-curvature="0"
   style="fill:#005684;fill-opacity:1;stroke-width:7.24564791"
   inkscape:export-filename="G:\Users\suitedoalex\sites\aoc-logo-4.png"
   inkscape:export-xdpi="76.457573"
   inkscape:export-ydpi="76.457573" /><path
   d="m 862.62873,434.43883 48.71249,-105.77197 c 7.905,-17.15044 12.30311,-22.50498 29.67092,-22.50498 v 46.77065 38.74973 42.75657 h 44.539 V 267.4194 h -50.30653 c -41.41612,0 -49.71964,17.70111 -69.77559,61.24746 l -48.71249,105.77197 z"
   id="path6-8"
   inkscape:connector-curvature="0"
   style="fill:#005684;fill-opacity:1;stroke-width:7.24564791"
   inkscape:export-filename="G:\Users\suitedoalex\sites\aoc-logo-4.png"
   inkscape:export-xdpi="76.457573"
   inkscape:export-ydpi="76.457573" /></svg>