<?xml version="1.0" encoding="UTF-8"?>
<svg xmlns="http://www.w3.org/2000/svg" xmlns:xlink="http://www.w3.org/1999/xlink" width="75pt" height="59pt" viewBox="0 0 75 59" version="1.1">
<g id="surface1">
<path style=" stroke:none;fill-rule:evenodd;fill:rgb(13.699341%,12.199402%,12.5%);fill-opacity:1;" d="M 58.789063 32.316406 L 61.46875 32.316406 L 61.46875 46.371094 L 58.789063 46.371094 Z M 63.28125 32.316406 L 65.960938 32.316406 L 65.960938 46.371094 L 63.28125 46.371094 Z M 41.902344 38.152344 L 41.894531 40.59375 C 42.675781 40.703125 43.6875 40.433594 44.359375 40.785156 C 44.894531 41.0625 45.367188 41.714844 45.195313 42.605469 C 45.058594 43.320313 44.574219 43.785156 43.839844 43.902344 C 43.242188 43.996094 41.804688 43.9375 41.140625 43.921875 L 41.136719 35.417969 C 42.355469 35.390625 43.871094 35.128906 44.1875 36.464844 C 44.335938 37.097656 44.011719 37.585938 43.667969 37.871094 C 43.167969 38.285156 42.554688 38.039063 41.902344 38.152344 Z M 38.222656 46.3125 C 38.710938 46.398438 40.0625 46.320313 40.640625 46.320313 C 41.453125 46.320313 42.265625 46.3125 43.078125 46.3125 C 44.941406 46.316406 45.722656 46.234375 46.910156 45.257813 C 48.308594 44.101563 48.75 41.664063 47.398438 40.054688 C 47.246094 39.875 46.980469 39.667969 46.722656 39.488281 C 46.519531 39.347656 46.109375 39.164063 45.957031 39.03125 C 47.707031 37.230469 47.183594 34.617188 45.589844 33.652344 C 44.351563 32.902344 41.875 33.066406 40.210938 33.058594 C 39.824219 33.054688 38.503906 33 38.226563 33.066406 Z M 6.027344 46.3125 L 8.929688 46.320313 L 8.941406 35.332031 C 10.03125 35.328125 11.816406 35.101563 12.101563 36.75 C 12.226563 37.492188 11.835938 38.011719 11.457031 38.320313 C 10.953125 38.734375 10.355469 38.710938 9.582031 38.707031 C 9.589844 39.566406 9.585938 40.433594 9.582031 41.296875 C 9.582031 42.257813 9.667969 42.03125 10.359375 43.144531 L 11.890625 45.503906 C 12.03125 45.726563 12.253906 46.117188 12.421875 46.304688 L 15.824219 46.320313 C 15.714844 46.019531 15.089844 45.242188 14.871094 44.917969 L 11.980469 40.785156 C 12.28125 40.582031 13.785156 40.367188 14.628906 38.5 C 15.246094 37.136719 14.953125 35.65625 14.214844 34.632813 C 13.621094 33.804688 12.472656 32.976563 10.96875 32.964844 C 10.285156 32.960938 6.390625 32.933594 6.03125 32.984375 Z M 29.8125 40.0625 C 30.953125 39.828125 31.808594 40.8125 31.960938 41.765625 C 32.148438 42.925781 31.386719 43.96875 30.460938 44.15625 C 29.238281 44.402344 28.355469 43.441406 28.210938 42.4375 C 28.125 41.832031 28.300781 41.226563 28.589844 40.835938 C 28.882813 40.445313 29.1875 40.191406 29.8125 40.0625 Z M 31.957031 38.816406 C 31.71875 38.683594 31.609375 38.492188 31.070313 38.210938 C 30.757813 38.046875 30.34375 37.902344 29.953125 37.839844 C 29.003906 37.683594 28.171875 37.894531 27.460938 38.292969 C 26.363281 38.910156 25.3125 40.328125 25.328125 42.195313 C 25.355469 45.824219 29.082031 47.664063 31.527344 45.824219 C 31.671875 45.714844 31.851563 45.542969 31.960938 45.484375 L 31.96875 46.289063 L 34.683594 46.304688 L 34.6875 32.335938 L 31.960938 32.328125 Z M 21.4375 41.125 C 20.550781 41.167969 19.234375 41.136719 18.300781 41.132813 C 18.386719 39.148438 21.3125 39.074219 21.4375 41.125 Z M 23.914063 44.417969 L 21.707031 43.378906 C 21.453125 43.769531 21.367188 43.945313 20.972656 44.160156 C 19.902344 44.757813 18.308594 44.171875 18.304688 42.742188 L 24.125 42.742188 C 24.363281 41.554688 23.929688 40.152344 23.40625 39.378906 C 21.652344 36.773438 16.828125 37.054688 15.632813 40.746094 C 14.515625 44.207031 17.695313 47.660156 21.636719 46.320313 C 22.492188 46.03125 23.648438 45.1875 23.914063 44.417969 Z M 57.402344 38.125 L 54.722656 38.144531 L 54.703125 41.9375 C 54.703125 42.558594 54.78125 43.1875 54.496094 43.65625 C 53.972656 44.511719 52.59375 44.59375 51.984375 43.675781 C 51.683594 43.21875 51.765625 42.597656 51.765625 41.980469 C 51.765625 40.695313 51.792969 39.402344 51.777344 38.117188 L 49.042969 38.121094 C 49.050781 39.175781 49.042969 40.238281 49.042969 41.296875 C 49.042969 42.132813 48.949219 43.675781 49.207031 44.359375 C 50.394531 47.511719 56.027344 47.507813 57.230469 44.382813 C 57.515625 43.644531 57.40625 42.210938 57.40625 41.339844 C 57.40625 40.273438 57.425781 39.191406 57.402344 38.125 "/>
<path style=" stroke:none;fill-rule:evenodd;fill:rgb(13.699341%,12.199402%,12.5%);fill-opacity:1;" d="M 58.417969 27.660156 C 58.320313 27.480469 58.277344 27.152344 58.207031 26.929688 C 58.105469 26.59375 58.253906 26.378906 58.445313 26.339844 C 58.886719 26.253906 58.847656 27.011719 58.929688 27.195313 C 59 27.351563 59.03125 27.296875 59.011719 27.503906 C 58.875 27.582031 58.570313 27.707031 58.417969 27.660156 Z M 12.976563 27.4375 C 12.996094 27.253906 13.0625 27.242188 13.113281 27.097656 C 13.136719 27.039063 13.167969 26.101563 13.613281 26.332031 C 13.863281 26.457031 13.867188 26.652344 13.773438 26.941406 C 13.703125 27.160156 13.660156 27.457031 13.566406 27.628906 C 13.367188 27.636719 13.117188 27.535156 12.976563 27.4375 Z M 57.359375 25.464844 C 57.5625 25.351563 57.851563 25.640625 57.980469 25.746094 C 58.179688 25.910156 58.324219 26.140625 57.996094 26.320313 C 57.675781 26.496094 57.519531 26.222656 57.382813 26.042969 C 57.214844 25.824219 57.03125 25.644531 57.359375 25.464844 Z M 14.460938 25.445313 C 14.699219 25.316406 14.929688 25.542969 14.800781 25.785156 C 14.414063 26.519531 13.804688 26.519531 13.886719 25.847656 Z M 46.320313 26.054688 C 45.289063 26.226563 45.417969 25.242188 45.902344 25.226563 C 46.035156 25.21875 46.40625 25.21875 46.523438 25.238281 C 46.605469 25.460938 46.417969 25.902344 46.320313 26.054688 Z M 25.210938 25.164063 C 25.304688 25.125 26.011719 25.054688 26.136719 25.097656 C 26.289063 25.152344 26.449219 25.808594 26.449219 25.8125 C 26.308594 26.011719 26.054688 26.113281 25.722656 26.066406 C 25.636719 25.914063 25.578125 25.765625 25.480469 25.582031 C 25.300781 25.253906 25.222656 25.472656 25.210938 25.164063 Z M 36.71875 25.8125 C 36.726563 25.652344 36.746094 25.664063 36.867188 25.582031 C 38.640625 24.355469 38.410156 21.746094 39.34375 19.976563 C 40.089844 18.5625 41.804688 17.605469 43.050781 16.632813 C 43.328125 16.421875 43.546875 16.191406 43.828125 15.996094 C 44.535156 15.511719 45.492188 16.160156 45.839844 16.511719 C 46.246094 16.917969 46.046875 16.855469 46.738281 17.023438 C 47.511719 17.210938 48.042969 17.480469 48.628906 17.957031 C 48.921875 18.199219 49.300781 18.167969 49.695313 18.296875 C 50.433594 18.539063 50.710938 19.105469 51.53125 19.289063 C 54.003906 19.839844 54.015625 20.609375 55.355469 21.101563 C 56.691406 21.59375 57.699219 20.503906 56.484375 19.25 C 56.265625 19.023438 56.023438 18.765625 55.78125 18.542969 C 54.601563 17.457031 55.53125 16.589844 56.695313 16.34375 C 56.898438 16.300781 57.085938 16.285156 57.277344 16.191406 C 57.464844 16.105469 57.527344 15.960938 57.703125 15.933594 C 58.023438 16.394531 57.753906 17.414063 56.886719 17.6875 C 56.699219 17.746094 56.492188 17.738281 56.300781 17.789063 C 55.839844 17.917969 56.441406 18.316406 56.59375 18.460938 C 56.777344 18.628906 56.964844 18.816406 57.117188 19.003906 C 57.394531 19.347656 57.785156 19.929688 57.734375 20.546875 C 57.6875 21.148438 57.234375 21.617188 56.835938 21.824219 C 56.589844 21.953125 56.265625 22.03125 55.949219 22.039063 C 55.589844 22.046875 54.964844 21.734375 55.039063 22.148438 C 55.046875 22.195313 55.078125 22.273438 55.09375 22.339844 C 55.351563 23.316406 54.542969 24.078125 55.230469 24.347656 C 55.476563 24.445313 55.886719 24.359375 56.074219 24.488281 C 56.253906 24.617188 56.296875 24.976563 56.367188 25.222656 C 56.539063 25.863281 56.527344 25.507813 57.238281 26.363281 C 57.523438 26.707031 57.585938 26.574219 57.835938 26.753906 C 57.910156 26.890625 58.113281 27.429688 58.042969 27.597656 C 57.707031 27.742188 57.144531 27.652344 56.925781 27.445313 C 56.714844 27.238281 56.574219 26.792969 56.179688 26.980469 C 55.71875 27.195313 55.542969 27.0625 55.242188 26.820313 C 54.667969 26.363281 53.957031 26.085938 53.179688 26.210938 C 52.679688 26.292969 52.515625 26.195313 52.160156 25.964844 C 51.8125 25.742188 51.671875 25.722656 51.492188 25.3125 C 51.386719 25.066406 51.308594 24.753906 51.28125 24.484375 C 51.253906 24.214844 51.367188 24.023438 51.550781 24.398438 C 52.546875 26.402344 53.84375 25.304688 54.933594 25.757813 C 55.171875 25.859375 55.898438 26.398438 56.015625 26.394531 C 55.894531 26.0625 55.207031 25.609375 54.695313 25.488281 C 53.960938 25.3125 53.410156 25.644531 52.71875 25.28125 C 51.363281 24.566406 51.683594 22.378906 51.246094 22.230469 C 51.179688 22.371094 51.410156 23.234375 51.242188 23.710938 C 50.933594 24.578125 49.503906 24.089844 48.472656 24.277344 C 47.941406 24.375 47.53125 24.453125 46.945313 24.425781 C 46.941406 24.179688 47.199219 23.980469 47.015625 23.753906 C 46.734375 23.820313 46.851563 24.441406 45.945313 24.78125 C 45.699219 24.875 45.53125 25.125 45.367188 25.277344 C 45.171875 25.464844 44.984375 25.644531 45.261719 25.941406 C 45.414063 26.109375 45.71875 26.210938 46.003906 26.273438 C 46.808594 26.453125 46.5 25.460938 47.148438 25.394531 C 47.441406 25.363281 47.878906 25.359375 48.078125 25.464844 C 48.101563 25.703125 47.925781 25.910156 47.804688 26.089844 C 47.546875 26.472656 47.539063 26.230469 47.230469 26.417969 C 47.035156 26.796875 47.160156 26.976563 46.738281 27.203125 C 46.414063 27.375 46.011719 27.160156 45.710938 27.070313 C 45.414063 26.980469 44.976563 26.90625 44.714844 26.789063 C 44.507813 26.699219 44.515625 26.582031 44.359375 26.503906 C 44.203125 26.421875 44.003906 26.5 43.769531 26.445313 C 43.644531 26.25 43.59375 25.992188 43.5 25.734375 C 43.394531 25.445313 43.335938 25.25 43.46875 24.964844 C 43.621094 24.644531 43.984375 23.957031 44.195313 23.765625 C 44.386719 23.777344 44.527344 23.863281 44.664063 23.921875 C 44.628906 24.125 44.269531 24.628906 44.140625 24.816406 C 43.875 25.207031 44 25.445313 44.171875 25.832031 C 44.222656 25.511719 44.144531 25.390625 44.292969 25.101563 C 44.632813 24.4375 45.390625 23.964844 44.671875 23.539063 C 44.273438 23.300781 44.089844 23.074219 43.933594 22.609375 C 43.699219 21.914063 43.867188 21.363281 43.636719 21.238281 C 43.28125 21.535156 43.628906 22.679688 43.792969 23.089844 C 43.957031 23.492188 44.09375 23.660156 43.597656 23.648438 C 42.136719 23.617188 42.421875 23.152344 41.808594 22.984375 C 41.828125 23.253906 42.035156 23.453125 42.167969 23.605469 C 42.363281 23.828125 42.433594 23.875 42.570313 24.1875 C 42.832031 24.796875 43.503906 25.257813 42.648438 25.292969 C 42.652344 25.535156 42.742188 25.691406 42.65625 25.898438 C 42.398438 26.515625 41.839844 26.183594 41.351563 26 C 40.863281 25.820313 40.78125 25.828125 40.203125 25.890625 C 39.710938 25.941406 39.632813 25.597656 39.320313 25.453125 C 39.144531 25.441406 38.308594 26.535156 37.613281 26.40625 C 37.167969 26.324219 37.976563 25.859375 38.179688 25.480469 C 38.289063 25.273438 38.316406 25.136719 38.449219 24.941406 C 38.554688 24.789063 38.707031 24.632813 38.710938 24.414063 C 38.484375 24.460938 38.0625 25.117188 37.898438 25.371094 C 37.699219 25.679688 37.097656 26.101563 36.71875 25.8125 Z M 16.9375 24.46875 C 17.15625 24.402344 17.605469 24.148438 17.640625 23.964844 C 17.675781 23.792969 17.429688 23.285156 17.375 23.050781 C 17.300781 22.746094 17.421875 22.148438 17.253906 21.96875 C 17.144531 21.910156 16.152344 22.246094 15.371094 21.886719 C 14.878906 21.65625 14.484375 21.265625 14.371094 20.625 C 14.21875 19.761719 14.585938 19.328125 14.953125 18.929688 C 15.433594 18.414063 16.0625 18.136719 16.050781 17.777344 C 15.722656 17.480469 15.179688 17.859375 14.535156 17.25 C 14.203125 16.933594 13.910156 16.285156 14.273438 15.816406 C 14.597656 15.941406 14.785156 16.214844 15.195313 16.335938 C 15.558594 16.441406 15.972656 16.464844 16.320313 16.617188 C 16.664063 16.769531 16.929688 16.980469 16.964844 17.433594 C 17.054688 18.613281 15.453125 18.859375 15.121094 19.871094 C 14.832031 20.75 15.511719 21.4375 16.355469 21.347656 C 17.039063 21.273438 17.820313 20.742188 18.253906 20.394531 C 18.898438 19.882813 19.230469 19.671875 20.273438 19.550781 C 21.78125 19.375 21.804688 18.191406 23.203125 18.191406 C 23.765625 18.191406 23.855469 17.988281 24.132813 17.722656 C 24.765625 17.117188 25.167969 17.152344 26.074219 16.792969 C 26.824219 16.496094 27.234375 15.9375 28.121094 15.964844 C 28.941406 15.992188 29.578125 16.609375 30 16.960938 C 30.433594 17.328125 31.183594 17.875 31.507813 18.273438 C 31.945313 18.808594 32.347656 19.265625 32.769531 19.878906 C 33.285156 20.625 33.171875 21.179688 33.394531 22.117188 C 33.488281 22.519531 33.59375 22.871094 33.722656 23.242188 C 34.007813 24.066406 33.820313 23.632813 34.246094 24.132813 C 34.457031 24.378906 34.601563 24.722656 34.800781 24.988281 C 34.898438 25.121094 35.015625 25.242188 35.167969 25.347656 C 35.324219 25.453125 35.507813 25.457031 35.542969 25.640625 C 35.183594 25.992188 34.457031 25.421875 34.246094 25.15625 C 34.011719 24.859375 33.757813 24.207031 33.308594 24.15625 C 33.425781 24.339844 33.550781 24.511719 33.675781 24.742188 C 33.984375 25.316406 33.886719 25.511719 34.488281 25.894531 C 34.652344 26 35.292969 26.28125 34.789063 26.347656 C 34.78125 26.347656 34.632813 26.34375 34.617188 26.34375 C 34.15625 26.308594 33.675781 26.113281 33.351563 25.792969 C 33.203125 25.640625 33.167969 25.570313 32.949219 25.507813 C 32.625 25.679688 32.449219 26.015625 31.925781 25.996094 C 31.210938 25.972656 31.21875 25.957031 30.609375 26.167969 C 30.296875 26.277344 29.628906 26.515625 29.441406 26.15625 C 29.386719 26.046875 29.316406 25.675781 29.359375 25.519531 C 29.410156 25.332031 29.582031 25.25 29.597656 25.046875 L 29.285156 25.074219 C 29.199219 24.667969 29.582031 24.449219 29.765625 24.253906 L 30.175781 23.378906 C 30 23.402344 29.355469 23.476563 29.207031 23.523438 C 28.878906 23.625 28.679688 23.765625 28.335938 23.59375 C 28.335938 23.414063 29.019531 22.222656 28.632813 21.890625 C 28.5625 21.996094 28.511719 22.34375 28.457031 22.515625 C 28.058594 23.765625 27.773438 23.25 27.183594 23.628906 C 27.152344 23.957031 27.5625 24.523438 27.714844 24.804688 C 28.101563 25.515625 27.957031 25.328125 27.792969 26.101563 C 27.914063 26.085938 28.492188 25.617188 28.15625 24.960938 L 27.707031 24.082031 C 27.554688 23.796875 27.621094 23.84375 27.65625 23.804688 C 27.816406 23.683594 28.152344 23.753906 28.253906 23.878906 C 28.28125 23.910156 28.441406 24.300781 28.480469 24.382813 C 28.652344 24.753906 28.964844 25.007813 28.863281 25.453125 C 28.828125 25.613281 28.425781 26.292969 28.316406 26.394531 C 28.0625 26.617188 27.835938 26.40625 27.15625 26.730469 C 26.820313 26.890625 26.445313 27.011719 26.0625 27.136719 C 25.253906 27.402344 25.046875 27.136719 24.660156 26.53125 C 24.484375 26.25 24.398438 26.429688 24.113281 26.351563 C 23.960938 26.308594 23.859375 26.050781 23.78125 25.917969 C 23.6875 25.761719 23.546875 25.617188 23.59375 25.382813 C 23.742188 25.226563 24.335938 25.179688 24.597656 25.230469 C 25.199219 25.355469 25.167969 26.382813 25.847656 26.363281 C 26.53125 26.347656 27.140625 25.910156 26.699219 25.222656 C 26.53125 24.960938 26.351563 24.863281 26.042969 24.679688 C 24.988281 24.039063 25.207031 23.511719 24.957031 23.425781 C 24.675781 23.898438 25.507813 24.320313 24.269531 24.265625 C 23.996094 24.253906 23.824219 24.21875 23.5625 24.167969 C 22.175781 23.886719 21.300781 24.640625 21.046875 23.777344 C 20.949219 23.441406 20.960938 23.027344 21.011719 22.671875 L 20.996094 22.371094 C 20.996094 22.351563 20.988281 22.347656 20.980469 22.339844 C 20.855469 22.382813 20.898438 22.320313 20.84375 22.515625 C 20.605469 23.40625 20.851563 24.632813 19.265625 25.164063 C 18.640625 25.375 17.945313 25.269531 17.285156 25.453125 C 16.816406 25.582031 16.097656 26.042969 16.054688 26.453125 C 16.226563 26.410156 16.582031 25.976563 17.148438 25.738281 C 18.039063 25.367188 19.175781 25.757813 20.066406 25.15625 C 20.257813 25.027344 20.375 24.894531 20.523438 24.714844 C 20.652344 24.554688 20.742188 24.335938 20.894531 24.21875 C 21.363281 24.351563 20.933594 24.890625 20.800781 25.164063 C 20.53125 25.714844 20.515625 25.546875 20.042969 25.816406 C 19.722656 26 19.5 26.226563 18.96875 26.195313 C 18.554688 26.171875 18.191406 26.003906 17.71875 26.101563 C 17.347656 26.179688 17.1875 26.496094 16.847656 26.683594 C 16.027344 27.128906 16.265625 26.78125 15.765625 26.835938 C 15.476563 26.867188 15.328125 27.394531 15.085938 27.574219 C 14.820313 27.769531 14.222656 27.707031 13.921875 27.566406 C 13.917969 27.296875 14.078125 26.757813 14.253906 26.65625 C 14.445313 26.546875 14.457031 26.648438 14.652344 26.453125 C 14.78125 26.328125 14.8125 26.226563 14.910156 26.113281 C 15.039063 25.96875 15.421875 25.808594 15.632813 25.59375 C 15.855469 25.367188 15.859375 25.054688 16.007813 24.777344 C 16.222656 24.371094 16.515625 24.597656 16.9375 24.46875 Z M 28.886719 15.804688 C 28.210938 15.734375 27.902344 15.515625 27.128906 15.886719 C 26.519531 16.179688 26.558594 16.328125 25.726563 16.621094 C 25.132813 16.832031 24.699219 16.917969 24.210938 17.242188 C 23.949219 17.417969 23.886719 17.554688 23.652344 17.753906 C 23.441406 17.929688 23.078125 17.890625 22.773438 17.949219 C 22.25 18.046875 21.699219 18.445313 21.40625 18.71875 C 20.8125 19.277344 20.675781 19.171875 19.855469 19.304688 C 18.589844 19.507813 18.09375 20.296875 17.078125 20.800781 C 16.535156 21.070313 16.003906 21.25 15.542969 20.773438 C 15.03125 20.246094 15.621094 19.605469 15.902344 19.324219 C 16.308594 18.917969 16.695313 18.765625 17.015625 18.296875 C 17.375 17.777344 17.324219 17.113281 16.953125 16.714844 C 16.40625 16.121094 15.546875 16.292969 14.734375 15.726563 C 14.554688 15.601563 14.242188 15.332031 14.046875 15.589844 C 13.707031 16.035156 13.796875 16.808594 14.121094 17.238281 C 14.554688 17.820313 14.875 17.828125 15.519531 17.976563 C 15.460938 18.101563 15.511719 18.03125 15.398438 18.136719 C 14.597656 18.882813 13.734375 19.589844 14.113281 20.875 C 14.445313 21.996094 15.425781 22.421875 16.488281 22.34375 C 16.582031 22.335938 16.632813 22.324219 16.714844 22.316406 C 17.175781 22.277344 16.960938 22.617188 17.074219 23.136719 C 17.203125 23.722656 17.601563 23.96875 16.761719 24.199219 C 16.480469 24.273438 16.214844 24.136719 15.964844 24.300781 C 15.578125 24.558594 15.652344 25.273438 15.292969 25.464844 C 15.03125 25.34375 14.898438 24.980469 14.449219 25.089844 C 14.296875 25.128906 13.773438 25.476563 13.6875 25.574219 C 13.457031 25.835938 13.632813 25.796875 13.261719 26.042969 C 13.171875 26.101563 13.128906 26.128906 13.070313 26.195313 C 12.800781 26.480469 12.90625 26.804688 12.722656 27.136719 C 12.492188 27.558594 12.703125 27.742188 13.054688 27.878906 C 13.710938 28.125 13.628906 27.84375 14.101563 27.949219 C 15.550781 28.28125 15.425781 27.347656 15.761719 27.1875 C 16.195313 27.144531 16.199219 27.375 16.695313 27.128906 C 16.960938 27 17.175781 26.875 17.382813 26.703125 C 18.117188 26.09375 18.175781 26.503906 19.097656 26.488281 C 19.632813 26.476563 19.871094 26.273438 20.285156 26.058594 C 21.105469 25.625 20.703125 25.90625 21.308594 24.898438 C 21.378906 24.78125 21.40625 24.679688 21.492188 24.542969 C 22.660156 24.480469 22.242188 24.304688 23.585938 24.488281 C 24.890625 24.671875 25.210938 24.332031 25.476563 24.753906 C 25.257813 24.796875 25.160156 24.84375 24.976563 24.898438 C 24.792969 24.953125 24.527344 24.890625 24.3125 24.898438 C 22.753906 24.972656 23.199219 25.542969 23.554688 26.183594 C 23.804688 26.632813 23.796875 26.675781 24.394531 26.71875 C 25.320313 28.378906 26.460938 27.101563 27.726563 26.863281 C 27.914063 26.832031 28.269531 26.804688 28.40625 26.734375 C 28.582031 26.644531 28.625 26.507813 28.734375 26.382813 C 28.78125 26.328125 28.753906 26.351563 28.800781 26.3125 C 28.960938 26.441406 29.261719 26.863281 29.410156 27.039063 C 29.996094 27.742188 30.875 28.410156 31.707031 28.847656 C 34.457031 30.285156 37.589844 30.363281 40.378906 28.882813 C 41.324219 28.378906 41.953125 27.832031 42.660156 27.101563 C 42.898438 26.859375 43.0625 26.625 43.296875 26.378906 C 43.464844 26.460938 43.464844 26.667969 43.671875 26.757813 C 43.957031 26.878906 44.070313 26.660156 44.347656 26.898438 C 44.554688 27.078125 44.550781 27.066406 44.863281 27.148438 C 45.386719 27.285156 46.332031 27.699219 46.792969 27.515625 C 47.375 27.28125 47.308594 26.878906 47.539063 26.675781 C 47.6875 26.574219 47.730469 26.648438 47.898438 26.480469 C 48.132813 26.242188 48.539063 25.652344 48.378906 25.347656 C 48.15625 24.921875 47.355469 25.183594 46.9375 25.078125 C 46.808594 25.046875 46.621094 24.910156 46.585938 24.828125 C 46.792969 24.644531 47.359375 24.734375 47.660156 24.699219 C 48.589844 24.59375 48.789063 24.453125 49.796875 24.515625 C 50.234375 24.542969 50.5625 24.480469 50.949219 24.476563 C 51.078125 25.171875 51.148438 25.546875 51.609375 25.964844 C 51.824219 26.152344 52.03125 26.234375 52.265625 26.375 C 53.0625 26.855469 53.664063 26.101563 54.8125 26.867188 C 55.003906 26.996094 55.210938 27.175781 55.429688 27.316406 C 55.761719 27.53125 56.113281 27.328125 56.394531 27.296875 C 56.980469 28.265625 57.4375 27.785156 58.113281 27.964844 C 58.371094 28.035156 58.261719 28.089844 58.585938 27.980469 C 59.199219 27.777344 59.5625 27.855469 59.242188 27.09375 C 59.082031 26.71875 59.28125 26.496094 58.929688 26.210938 C 58.851563 26.144531 58.628906 26.03125 58.570313 25.96875 C 58.425781 25.804688 58.574219 25.796875 58.324219 25.617188 C 58.199219 25.527344 57.773438 25.175781 57.628906 25.117188 C 57.210938 24.945313 57.082031 25.40625 56.804688 25.417969 C 56.628906 25.101563 56.59375 24.671875 56.410156 24.367188 C 56.160156 23.964844 55.710938 24.183594 55.289063 24.035156 C 55.238281 23.742188 55.382813 23.539063 55.417969 23.28125 C 55.46875 22.929688 55.429688 22.644531 55.433594 22.300781 C 56.15625 22.3125 56.617188 22.355469 57.15625 21.972656 C 58.480469 21.019531 58.125 19.554688 57.128906 18.5625 C 57.015625 18.449219 56.675781 18.164063 56.609375 18.050781 C 57.242188 17.816406 57.667969 17.765625 57.941406 17.160156 C 58.128906 16.742188 58.277344 15.5 57.660156 15.46875 C 57.464844 15.609375 57.429688 15.773438 57.195313 15.898438 C 56.703125 16.160156 56.074219 16.011719 55.316406 16.710938 C 54.351563 17.605469 55.257813 18.472656 55.839844 19.039063 C 56.140625 19.328125 56.492188 19.648438 56.644531 20.027344 C 56.882813 20.617188 56.390625 20.941406 55.824219 20.894531 C 54.878906 20.8125 53.605469 19.472656 52.164063 19.125 C 51.402344 18.945313 51.429688 19.019531 50.820313 18.628906 C 49.316406 17.65625 49.644531 18.121094 48.941406 17.8125 C 48.714844 17.714844 48.578125 17.558594 48.394531 17.417969 C 48.101563 17.199219 47.613281 16.960938 47.191406 16.832031 C 46.367188 16.574219 46.613281 16.84375 45.96875 16.214844 C 45.527344 15.78125 44.644531 15.363281 43.972656 15.589844 C 43.691406 15.683594 43.613281 15.867188 43.375 15.941406 C 42.933594 15.085938 41.371094 13.886719 40.492188 13.390625 C 37.226563 11.550781 33.027344 12.019531 30.226563 14.410156 C 29.679688 14.878906 29.34375 15.355469 28.886719 15.804688 "/>
<path style=" stroke:none;fill-rule:evenodd;fill:rgb(13.699341%,12.199402%,12.5%);fill-opacity:1;" d="M 39.582031 23.449219 C 39.8125 23.464844 39.757813 23.363281 39.820313 23.152344 C 39.953125 22.703125 40.59375 22.3125 40.730469 22.351563 C 40.921875 22.480469 40.824219 22.589844 41.074219 22.632813 C 41.308594 22.429688 41.0625 22.113281 40.921875 21.902344 C 40.628906 21.46875 40.53125 21.679688 40.304688 21.96875 C 40.148438 22.171875 39.898438 22.359375 39.753906 22.570313 C 39.601563 22.796875 39.464844 23.179688 39.582031 23.449219 "/>
<path style=" stroke:none;fill-rule:evenodd;fill:rgb(13.699341%,12.199402%,12.5%);fill-opacity:1;" d="M 31.46875 22.550781 C 31.734375 22.480469 31.808594 21.949219 32.207031 22.367188 C 32.566406 22.742188 32.4375 22.730469 32.554688 23.257813 C 32.8125 23.246094 32.84375 23.019531 32.820313 22.734375 C 32.804688 22.535156 32.714844 22.34375 32.617188 22.210938 C 32.492188 22.03125 32.417969 21.96875 32.289063 21.769531 C 32.175781 21.585938 32.109375 21.488281 31.84375 21.503906 C 31.695313 21.707031 31.402344 22.269531 31.46875 22.550781 "/>
<path style=" stroke:none;fill-rule:evenodd;fill:rgb(90.19928%,90.59906%,90.99884%);fill-opacity:1;" d="M 12.976563 27.4375 C 13.117188 27.535156 13.367188 27.636719 13.566406 27.628906 C 13.660156 27.457031 13.703125 27.160156 13.773438 26.941406 C 13.867188 26.652344 13.863281 26.457031 13.613281 26.332031 C 13.167969 26.101563 13.136719 27.039063 13.113281 27.097656 C 13.0625 27.242188 12.996094 27.253906 12.976563 27.4375 Z M 13.886719 25.847656 C 13.804688 26.519531 14.414063 26.519531 14.800781 25.785156 C 14.929688 25.542969 14.699219 25.316406 14.460938 25.445313 Z M 25.210938 25.164063 C 25.222656 25.472656 25.300781 25.253906 25.480469 25.582031 C 25.578125 25.765625 25.636719 25.914063 25.722656 26.066406 C 26.054688 26.113281 26.308594 26.011719 26.449219 25.8125 C 26.449219 25.808594 26.289063 25.152344 26.136719 25.097656 C 26.011719 25.054688 25.304688 25.125 25.210938 25.164063 Z M 31.46875 22.550781 C 31.402344 22.269531 31.695313 21.707031 31.84375 21.503906 C 32.109375 21.488281 32.175781 21.585938 32.289063 21.769531 C 32.417969 21.96875 32.492188 22.03125 32.617188 22.210938 C 32.714844 22.34375 32.804688 22.535156 32.820313 22.734375 C 32.84375 23.019531 32.8125 23.246094 32.554688 23.257813 C 32.4375 22.730469 32.566406 22.742188 32.207031 22.367188 C 31.808594 21.949219 31.734375 22.480469 31.46875 22.550781 Z M 16.050781 17.777344 C 16.0625 18.136719 15.433594 18.414063 14.953125 18.929688 C 14.585938 19.328125 14.21875 19.761719 14.371094 20.625 C 14.484375 21.265625 14.878906 21.65625 15.371094 21.886719 C 16.152344 22.246094 17.144531 21.910156 17.253906 21.96875 C 17.421875 22.148438 17.300781 22.746094 17.375 23.050781 C 17.429688 23.285156 17.675781 23.792969 17.640625 23.964844 C 17.605469 24.148438 17.15625 24.402344 16.9375 24.46875 C 16.515625 24.597656 16.222656 24.371094 16.007813 24.777344 C 15.859375 25.054688 15.855469 25.367188 15.632813 25.59375 C 15.421875 25.808594 15.039063 25.96875 14.910156 26.113281 C 14.8125 26.226563 14.78125 26.328125 14.652344 26.453125 C 14.457031 26.648438 14.445313 26.546875 14.253906 26.65625 C 14.078125 26.757813 13.917969 27.296875 13.921875 27.566406 C 14.222656 27.707031 14.820313 27.769531 15.085938 27.574219 C 15.328125 27.394531 15.476563 26.867188 15.765625 26.835938 C 16.265625 26.78125 16.027344 27.128906 16.847656 26.683594 C 17.1875 26.496094 17.347656 26.179688 17.71875 26.101563 C 18.191406 26.003906 18.554688 26.171875 18.96875 26.195313 C 19.5 26.226563 19.722656 26 20.042969 25.816406 C 20.515625 25.546875 20.53125 25.714844 20.800781 25.164063 C 20.933594 24.890625 21.363281 24.351563 20.894531 24.21875 C 20.742188 24.335938 20.652344 24.554688 20.523438 24.714844 C 20.375 24.894531 20.257813 25.027344 20.066406 25.15625 C 19.175781 25.757813 18.039063 25.367188 17.148438 25.738281 C 16.582031 25.976563 16.226563 26.410156 16.054688 26.453125 C 16.097656 26.042969 16.816406 25.582031 17.285156 25.453125 C 17.945313 25.269531 18.640625 25.375 19.265625 25.164063 C 20.851563 24.632813 20.605469 23.40625 20.84375 22.515625 C 20.898438 22.320313 20.855469 22.382813 20.980469 22.339844 C 20.988281 22.347656 20.996094 22.351563 20.996094 22.371094 L 21.011719 22.671875 C 20.960938 23.027344 20.949219 23.441406 21.046875 23.777344 C 21.300781 24.640625 22.175781 23.886719 23.5625 24.167969 C 23.824219 24.21875 23.996094 24.253906 24.269531 24.265625 C 25.507813 24.320313 24.675781 23.898438 24.957031 23.425781 C 25.207031 23.511719 24.988281 24.039063 26.042969 24.679688 C 26.351563 24.863281 26.53125 24.960938 26.699219 25.222656 C 27.140625 25.910156 26.53125 26.347656 25.847656 26.363281 C 25.167969 26.382813 25.199219 25.355469 24.597656 25.230469 C 24.335938 25.179688 23.742188 25.226563 23.59375 25.382813 C 23.546875 25.617188 23.6875 25.761719 23.78125 25.917969 C 23.859375 26.050781 23.960938 26.308594 24.113281 26.351563 C 24.398438 26.429688 24.484375 26.25 24.660156 26.53125 C 25.046875 27.136719 25.253906 27.402344 26.0625 27.136719 C 26.445313 27.011719 26.820313 26.890625 27.15625 26.730469 C 27.835938 26.40625 28.0625 26.617188 28.316406 26.394531 C 28.425781 26.292969 28.828125 25.613281 28.863281 25.453125 C 28.964844 25.007813 28.652344 24.753906 28.480469 24.382813 C 28.441406 24.300781 28.28125 23.910156 28.253906 23.878906 C 28.152344 23.753906 27.816406 23.683594 27.65625 23.804688 C 27.621094 23.84375 27.554688 23.796875 27.707031 24.082031 L 28.15625 24.960938 C 28.492188 25.617188 27.914063 26.085938 27.792969 26.101563 C 27.957031 25.328125 28.101563 25.515625 27.714844 24.804688 C 27.5625 24.523438 27.152344 23.957031 27.183594 23.628906 C 27.773438 23.25 28.058594 23.765625 28.457031 22.515625 C 28.511719 22.34375 28.5625 21.996094 28.632813 21.890625 C 29.019531 22.222656 28.335938 23.414063 28.335938 23.59375 C 28.679688 23.765625 28.878906 23.625 29.207031 23.523438 C 29.355469 23.476563 30 23.402344 30.175781 23.378906 L 29.765625 24.253906 C 29.582031 24.449219 29.199219 24.667969 29.285156 25.074219 L 29.597656 25.046875 C 29.582031 25.25 29.410156 25.332031 29.359375 25.519531 C 29.316406 25.675781 29.386719 26.046875 29.441406 26.15625 C 29.628906 26.515625 30.296875 26.277344 30.609375 26.167969 C 31.21875 25.957031 31.210938 25.972656 31.925781 25.996094 C 32.449219 26.015625 32.625 25.679688 32.949219 25.507813 C 33.167969 25.570313 33.203125 25.640625 33.351563 25.792969 C 33.675781 26.113281 34.15625 26.308594 34.617188 26.34375 C 34.632813 26.34375 34.78125 26.347656 34.789063 26.347656 C 35.292969 26.28125 34.652344 26 34.488281 25.894531 C 33.886719 25.511719 33.984375 25.316406 33.675781 24.742188 C 33.550781 24.511719 33.425781 24.339844 33.308594 24.15625 C 33.757813 24.207031 34.011719 24.859375 34.246094 25.15625 C 34.457031 25.421875 35.183594 25.992188 35.542969 25.640625 C 35.507813 25.457031 35.324219 25.453125 35.167969 25.347656 C 35.015625 25.242188 34.898438 25.121094 34.800781 24.988281 C 34.601563 24.722656 34.457031 24.378906 34.246094 24.132813 C 33.820313 23.632813 34.007813 24.066406 33.722656 23.242188 C 33.59375 22.871094 33.488281 22.519531 33.394531 22.117188 C 33.171875 21.179688 33.285156 20.625 32.769531 19.878906 C 32.347656 19.265625 31.945313 18.808594 31.507813 18.273438 C 31.183594 17.875 30.433594 17.328125 30 16.960938 C 29.578125 16.609375 28.941406 15.992188 28.121094 15.964844 C 27.234375 15.9375 26.824219 16.496094 26.074219 16.792969 C 25.167969 17.152344 24.765625 17.117188 24.132813 17.722656 C 23.855469 17.988281 23.765625 18.191406 23.203125 18.191406 C 21.804688 18.191406 21.78125 19.375 20.273438 19.550781 C 19.230469 19.671875 18.898438 19.882813 18.253906 20.394531 C 17.820313 20.742188 17.039063 21.273438 16.355469 21.347656 C 15.511719 21.4375 14.832031 20.75 15.121094 19.871094 C 15.453125 18.859375 17.054688 18.613281 16.964844 17.433594 C 16.929688 16.980469 16.664063 16.769531 16.320313 16.617188 C 15.972656 16.464844 15.558594 16.441406 15.195313 16.335938 C 14.785156 16.214844 14.597656 15.941406 14.273438 15.816406 C 13.910156 16.285156 14.203125 16.933594 14.535156 17.25 C 15.179688 17.859375 15.722656 17.480469 16.050781 17.777344 "/>
<path style=" stroke:none;fill-rule:evenodd;fill:rgb(90.19928%,90.59906%,90.99884%);fill-opacity:1;" d="M 46.320313 26.054688 C 46.417969 25.902344 46.605469 25.460938 46.523438 25.238281 C 46.40625 25.21875 46.035156 25.21875 45.902344 25.226563 C 45.417969 25.242188 45.289063 26.226563 46.320313 26.054688 Z M 58.417969 27.660156 C 58.570313 27.707031 58.875 27.582031 59.011719 27.503906 C 59.03125 27.296875 59 27.351563 58.929688 27.195313 C 58.847656 27.011719 58.886719 26.253906 58.445313 26.339844 C 58.253906 26.378906 58.105469 26.59375 58.207031 26.929688 C 58.277344 27.152344 58.320313 27.480469 58.417969 27.660156 Z M 57.359375 25.464844 C 57.03125 25.644531 57.214844 25.824219 57.382813 26.042969 C 57.519531 26.222656 57.675781 26.496094 57.996094 26.320313 C 58.324219 26.140625 58.179688 25.910156 57.980469 25.746094 C 57.851563 25.640625 57.5625 25.351563 57.359375 25.464844 Z M 39.582031 23.449219 C 39.464844 23.179688 39.601563 22.796875 39.753906 22.570313 C 39.898438 22.359375 40.148438 22.171875 40.304688 21.96875 C 40.53125 21.679688 40.628906 21.46875 40.921875 21.902344 C 41.0625 22.113281 41.308594 22.429688 41.074219 22.632813 C 40.824219 22.589844 40.921875 22.480469 40.730469 22.351563 C 40.59375 22.3125 39.953125 22.703125 39.820313 23.152344 C 39.757813 23.363281 39.8125 23.464844 39.582031 23.449219 Z M 36.71875 25.8125 C 37.097656 26.101563 37.699219 25.679688 37.898438 25.371094 C 38.0625 25.117188 38.484375 24.460938 38.710938 24.414063 C 38.707031 24.632813 38.554688 24.789063 38.449219 24.941406 C 38.316406 25.136719 38.289063 25.273438 38.179688 25.480469 C 37.976563 25.859375 37.167969 26.324219 37.613281 26.40625 C 38.308594 26.535156 39.144531 25.441406 39.320313 25.453125 C 39.632813 25.597656 39.710938 25.941406 40.203125 25.890625 C 40.78125 25.828125 40.863281 25.820313 41.351563 26 C 41.839844 26.183594 42.398438 26.515625 42.65625 25.898438 C 42.742188 25.691406 42.652344 25.535156 42.648438 25.292969 C 43.503906 25.257813 42.832031 24.796875 42.570313 24.1875 C 42.433594 23.875 42.363281 23.828125 42.167969 23.605469 C 42.035156 23.453125 41.828125 23.253906 41.808594 22.984375 C 42.421875 23.152344 42.136719 23.617188 43.597656 23.648438 C 44.09375 23.660156 43.957031 23.492188 43.792969 23.089844 C 43.628906 22.679688 43.28125 21.535156 43.636719 21.238281 C 43.867188 21.363281 43.699219 21.914063 43.933594 22.609375 C 44.089844 23.074219 44.273438 23.300781 44.671875 23.539063 C 45.390625 23.964844 44.632813 24.4375 44.292969 25.101563 C 44.144531 25.390625 44.222656 25.511719 44.171875 25.832031 C 44 25.445313 43.875 25.207031 44.140625 24.816406 C 44.269531 24.628906 44.628906 24.125 44.664063 23.921875 C 44.527344 23.863281 44.386719 23.777344 44.195313 23.765625 C 43.984375 23.957031 43.621094 24.644531 43.46875 24.964844 C 43.335938 25.25 43.394531 25.445313 43.5 25.734375 C 43.59375 25.992188 43.644531 26.25 43.769531 26.445313 C 44.003906 26.5 44.203125 26.421875 44.359375 26.503906 C 44.515625 26.582031 44.507813 26.699219 44.714844 26.789063 C 44.976563 26.90625 45.414063 26.980469 45.710938 27.070313 C 46.011719 27.160156 46.414063 27.375 46.738281 27.203125 C 47.160156 26.976563 47.035156 26.796875 47.230469 26.417969 C 47.539063 26.230469 47.546875 26.472656 47.804688 26.089844 C 47.925781 25.910156 48.101563 25.703125 48.078125 25.464844 C 47.878906 25.359375 47.441406 25.363281 47.148438 25.394531 C 46.5 25.460938 46.808594 26.453125 46.003906 26.273438 C 45.71875 26.210938 45.414063 26.109375 45.261719 25.941406 C 44.984375 25.644531 45.171875 25.464844 45.367188 25.277344 C 45.53125 25.125 45.699219 24.875 45.945313 24.78125 C 46.851563 24.441406 46.734375 23.820313 47.015625 23.753906 C 47.199219 23.980469 46.941406 24.179688 46.945313 24.425781 C 47.53125 24.453125 47.941406 24.375 48.472656 24.277344 C 49.503906 24.089844 50.933594 24.578125 51.242188 23.710938 C 51.410156 23.234375 51.179688 22.371094 51.246094 22.230469 C 51.683594 22.378906 51.363281 24.566406 52.71875 25.28125 C 53.410156 25.644531 53.960938 25.3125 54.695313 25.488281 C 55.207031 25.609375 55.894531 26.0625 56.015625 26.394531 C 55.898438 26.398438 55.171875 25.859375 54.933594 25.757813 C 53.84375 25.304688 52.546875 26.402344 51.550781 24.398438 C 51.367188 24.023438 51.253906 24.214844 51.28125 24.484375 C 51.308594 24.753906 51.386719 25.066406 51.492188 25.3125 C 51.671875 25.722656 51.8125 25.742188 52.160156 25.964844 C 52.515625 26.195313 52.679688 26.292969 53.179688 26.210938 C 53.957031 26.085938 54.667969 26.363281 55.242188 26.820313 C 55.542969 27.0625 55.71875 27.195313 56.179688 26.980469 C 56.574219 26.792969 56.714844 27.238281 56.925781 27.445313 C 57.144531 27.652344 57.707031 27.742188 58.042969 27.597656 C 58.113281 27.429688 57.910156 26.890625 57.835938 26.753906 C 57.585938 26.574219 57.523438 26.707031 57.238281 26.363281 C 56.527344 25.507813 56.539063 25.863281 56.367188 25.222656 C 56.296875 24.976563 56.253906 24.617188 56.074219 24.488281 C 55.886719 24.359375 55.476563 24.445313 55.230469 24.347656 C 54.542969 24.078125 55.351563 23.316406 55.09375 22.339844 C 55.078125 22.273438 55.046875 22.195313 55.039063 22.148438 C 54.964844 21.734375 55.589844 22.046875 55.949219 22.039063 C 56.265625 22.03125 56.589844 21.953125 56.835938 21.824219 C 57.234375 21.617188 57.6875 21.148438 57.734375 20.546875 C 57.785156 19.929688 57.394531 19.347656 57.117188 19.003906 C 56.964844 18.816406 56.777344 18.628906 56.59375 18.460938 C 56.441406 18.316406 55.839844 17.917969 56.300781 17.789063 C 56.492188 17.738281 56.699219 17.746094 56.886719 17.6875 C 57.753906 17.414063 58.023438 16.394531 57.703125 15.933594 C 57.527344 15.960938 57.464844 16.105469 57.277344 16.191406 C 57.085938 16.285156 56.898438 16.300781 56.695313 16.34375 C 55.53125 16.589844 54.601563 17.457031 55.78125 18.542969 C 56.023438 18.765625 56.265625 19.023438 56.484375 19.25 C 57.699219 20.503906 56.691406 21.59375 55.355469 21.101563 C 54.015625 20.609375 54.003906 19.839844 51.53125 19.289063 C 50.710938 19.105469 50.433594 18.539063 49.695313 18.296875 C 49.300781 18.167969 48.921875 18.199219 48.628906 17.957031 C 48.042969 17.480469 47.511719 17.210938 46.738281 17.023438 C 46.046875 16.855469 46.246094 16.917969 45.839844 16.511719 C 45.492188 16.160156 44.535156 15.511719 43.828125 15.996094 C 43.546875 16.191406 43.328125 16.421875 43.050781 16.632813 C 41.804688 17.605469 40.089844 18.5625 39.34375 19.976563 C 38.410156 21.746094 38.640625 24.355469 36.867188 25.582031 C 36.746094 25.664063 36.726563 25.652344 36.71875 25.8125 "/>
<path style=" stroke:none;fill-rule:nonzero;fill:rgb(13.699341%,12.199402%,12.5%);fill-opacity:1;" d="M 67.929688 31.367188 C 68.128906 31.367188 68.320313 31.417969 68.507813 31.523438 C 68.699219 31.621094 68.84375 31.769531 68.949219 31.957031 C 69.054688 32.144531 69.105469 32.34375 69.105469 32.546875 C 69.105469 32.75 69.054688 32.945313 68.953125 33.132813 C 68.847656 33.316406 68.703125 33.464844 68.515625 33.566406 C 68.328125 33.671875 68.132813 33.722656 67.929688 33.722656 C 67.726563 33.722656 67.53125 33.671875 67.34375 33.566406 C 67.15625 33.464844 67.011719 33.316406 66.910156 33.132813 C 66.804688 32.945313 66.753906 32.75 66.753906 32.546875 C 66.753906 32.34375 66.804688 32.144531 66.910156 31.957031 C 67.019531 31.769531 67.164063 31.621094 67.351563 31.523438 C 67.539063 31.417969 67.734375 31.367188 67.929688 31.367188 Z M 67.929688 31.5625 C 67.765625 31.5625 67.605469 31.605469 67.449219 31.691406 C 67.292969 31.777344 67.167969 31.898438 67.082031 32.054688 C 66.992188 32.210938 66.949219 32.375 66.949219 32.546875 C 66.949219 32.714844 66.992188 32.878906 67.078125 33.035156 C 67.164063 33.1875 67.285156 33.308594 67.441406 33.398438 C 67.597656 33.484375 67.761719 33.527344 67.929688 33.527344 C 68.101563 33.527344 68.261719 33.484375 68.417969 33.398438 C 68.574219 33.308594 68.695313 33.1875 68.78125 33.035156 C 68.867188 32.878906 68.910156 32.714844 68.910156 32.546875 C 68.910156 32.375 68.867188 32.210938 68.78125 32.054688 C 68.691406 31.898438 68.570313 31.777344 68.414063 31.691406 C 68.253906 31.605469 68.09375 31.5625 67.929688 31.5625 Z M 67.414063 33.195313 L 67.414063 31.929688 L 67.847656 31.929688 C 68 31.929688 68.105469 31.941406 68.171875 31.964844 C 68.238281 31.988281 68.292969 32.03125 68.332031 32.089844 C 68.371094 32.148438 68.390625 32.207031 68.390625 32.273438 C 68.390625 32.367188 68.359375 32.445313 68.292969 32.515625 C 68.226563 32.582031 68.136719 32.621094 68.027344 32.628906 C 68.074219 32.648438 68.109375 32.671875 68.136719 32.699219 C 68.1875 32.746094 68.25 32.832031 68.324219 32.949219 L 68.476563 33.195313 L 68.230469 33.195313 L 68.117188 32.996094 C 68.027344 32.839844 67.957031 32.742188 67.902344 32.703125 C 67.863281 32.671875 67.8125 32.660156 67.738281 32.660156 L 67.617188 32.660156 L 67.617188 33.195313 Z M 67.617188 32.484375 L 67.867188 32.484375 C 67.984375 32.484375 68.066406 32.464844 68.109375 32.429688 C 68.152344 32.394531 68.175781 32.347656 68.175781 32.292969 C 68.175781 32.253906 68.164063 32.21875 68.144531 32.191406 C 68.121094 32.160156 68.09375 32.140625 68.054688 32.125 C 68.019531 32.109375 67.953125 32.101563 67.851563 32.101563 L 67.617188 32.101563 L 67.617188 32.484375 "/>
</g>
</svg>
